<svg xmlns="http://www.w3.org/2000/svg" viewBox="0 0 40 40">
  <g fill="#FFF">
    <path d="M7.55225296,3.78324111 C7.55225296,5.86703557 5.863083,7.55557312 3.77992095,7.55557312 C1.69612648,7.55557312 0.00743083004,5.86703557 0.00743083004,3.78324111 C0.00743083004,1.69944664 1.69596838,0.0109090909 3.77976285,0.0109090909 C5.86316206,0.0109090909 7.55225296,1.69944664 7.55225296,3.78324111" transform="translate(0 8)"/>
    <path d="M15.1086166,20.8083004 C12.3220553,20.8083004 10.0551779,18.541581 10.0551779,15.7550988 C10.0551779,12.9686166 12.3222134,10.7016601 15.1086166,10.7016601 L24.6564427,10.7016601 C26.3019763,10.7016601 27.6408696,9.36268775 27.6408696,7.71699605 C27.6408696,6.07130435 26.3018972,4.73233202 24.6564427,4.73233202 L3.77944664,4.73233202 C3.20814229,4.73233202 2.74498024,4.26909091 2.74498024,3.69794466 C2.74498024,3.12664032 3.20822134,2.66347826 3.77936759,2.66347826 L24.6562846,2.66347826 C27.4428458,2.66347826 29.7094862,4.93051383 29.7094862,7.716917 C29.7094862,10.5033202 27.4427668,12.7701186 24.6562846,12.7701186 L15.1084585,12.7701186 C13.4626087,12.7701186 12.1237945,14.1090909 12.1237945,15.7550988 C12.1237945,17.4006324 13.4627668,18.7395257 15.1084585,18.7395257 L36.2197628,18.7395257 C36.7910672,18.7395257 37.2542292,19.2027668 37.2542292,19.773913 C37.2542292,20.3451383 36.7911462,20.8083004 36.2198419,20.8083004 L15.1086166,20.8083004 Z" transform="translate(0 8)"/>
    <path d="M32.447747,19.7740711 C32.447747,17.6902767 34.1362846,16.0017391 36.2200791,16.0017391 C38.3038735,16.0017391 39.9924111,17.6902767 39.9924111,19.7740711 C39.9924111,21.8578656 38.3038735,23.5464032 36.2200791,23.5464032 C34.1362846,23.5464032 32.447747,21.8578656 32.447747,19.7740711" transform="translate(0 8)"/>
  </g>
</svg>
